<svg xmlns="http://www.w3.org/2000/svg" version="1.1" xmlns:xlink="http://www.w3.org/1999/xlink" xmlns:svgjs="http://svgjs.com/svgjs" width="1440" height="560" preserveAspectRatio="none" viewBox="0 0 1440 560"><g mask="url(&quot;#SvgjsMask1018&quot;)" fill="none"><rect width="1440" height="560" x="0" y="0" fill="rgba(53, 71, 14, 1)"></rect><path d="M-88.88 378.24L-88.88 378.24" stroke="rgba(58, 197, 31, 1)" stroke-width="1.5"></path><path d="M-88.88 378.24L51.47 388.18" stroke="rgba(58, 197, 31, 1)" stroke-width="1.5"></path><path d="M-88.88 378.24L-96.86 527.1" stroke="rgba(58, 197, 31, 1)" stroke-width="1.5"></path><path d="M-96.86 527.1L-96.86 527.1" stroke="rgba(58, 197, 31, 1)" stroke-width="1.5"></path><path d="M51.47 388.18L51.47 388.18" stroke="rgba(58, 197, 31, 1)" stroke-width="1.5"></path><path d="M51.47 388.18L83.89 554.84" stroke="rgba(58, 197, 31, 1)" stroke-width="1.5"></path><path d="M51.47 388.18L235.51 341.47" stroke="rgba(58, 197, 31, 1)" stroke-width="1.5"></path><path d="M83.89 554.84L83.89 554.84" stroke="rgba(58, 197, 31, 1)" stroke-width="1.5"></path><path d="M83.89 554.84L200.55 543.14" stroke="rgba(58, 197, 31, 1)" stroke-width="1.5"></path><path d="M83.89 554.84L82.47 680.16" stroke="rgba(58, 197, 31, 1)" stroke-width="1.5"></path><path d="M83.89 554.84L-96.86 527.1" stroke="rgba(58, 197, 31, 1)" stroke-width="1.5"></path><path d="M82.47 680.16L82.47 680.16" stroke="rgba(58, 197, 31, 1)" stroke-width="1.5"></path><path d="M82.47 680.16L200.55 543.14" stroke="rgba(58, 197, 31, 1)" stroke-width="1.5"></path><path d="M82.47 680.16L-96.86 527.1" stroke="rgba(58, 197, 31, 1)" stroke-width="1.5"></path><path d="M82.47 680.16L358.41 676.84" stroke="rgba(58, 197, 31, 1)" stroke-width="1.5"></path><path d="M82.47 680.16L51.47 388.18" stroke="rgba(58, 197, 31, 1)" stroke-width="1.5"></path><path d="M82.47 680.16L350.64 494.32" stroke="rgba(58, 197, 31, 1)" stroke-width="1.5"></path><path d="M235.51 341.47L235.51 341.47" stroke="rgba(58, 197, 31, 1)" stroke-width="1.5"></path><path d="M200.55 543.14L200.55 543.14" stroke="rgba(58, 197, 31, 1)" stroke-width="1.5"></path><path d="M200.55 543.14L350.64 494.32" stroke="rgba(58, 197, 31, 1)" stroke-width="1.5"></path><path d="M200.55 543.14L235.51 341.47" stroke="rgba(58, 197, 31, 1)" stroke-width="1.5"></path><path d="M200.55 543.14L358.41 676.84" stroke="rgba(58, 197, 31, 1)" stroke-width="1.5"></path><path d="M350.64 494.32L350.64 494.32" stroke="rgba(58, 197, 31, 1)" stroke-width="1.5"></path><path d="M350.64 494.32L358.41 676.84" stroke="rgba(58, 197, 31, 1)" stroke-width="1.5"></path><path d="M358.41 676.84L358.41 676.84" stroke="rgba(58, 197, 31, 1)" stroke-width="1.5"></path><path d="M358.41 676.84L526.14 689.94" stroke="rgba(58, 197, 31, 1)" stroke-width="1.5"></path><path d="M358.41 676.84L555.6 538.63" stroke="rgba(58, 197, 31, 1)" stroke-width="1.5"></path><path d="M539.22 409.83L539.22 409.83" stroke="rgba(58, 197, 31, 1)" stroke-width="1.5"></path><path d="M539.22 409.83L655.28 382.96" stroke="rgba(58, 197, 31, 1)" stroke-width="1.5"></path><path d="M539.22 409.83L555.6 538.63" stroke="rgba(58, 197, 31, 1)" stroke-width="1.5"></path><path d="M539.22 409.83L673.2 503.27" stroke="rgba(58, 197, 31, 1)" stroke-width="1.5"></path><path d="M555.6 538.63L555.6 538.63" stroke="rgba(58, 197, 31, 1)" stroke-width="1.5"></path><path d="M555.6 538.63L673.2 503.27" stroke="rgba(58, 197, 31, 1)" stroke-width="1.5"></path><path d="M555.6 538.63L526.14 689.94" stroke="rgba(58, 197, 31, 1)" stroke-width="1.5"></path><path d="M555.6 538.63L657.76 684.14" stroke="rgba(58, 197, 31, 1)" stroke-width="1.5"></path><path d="M526.14 689.94L526.14 689.94" stroke="rgba(58, 197, 31, 1)" stroke-width="1.5"></path><path d="M526.14 689.94L657.76 684.14" stroke="rgba(58, 197, 31, 1)" stroke-width="1.5"></path><path d="M526.14 689.94L673.2 503.27" stroke="rgba(58, 197, 31, 1)" stroke-width="1.5"></path><path d="M655.28 382.96L655.28 382.96" stroke="rgba(58, 197, 31, 1)" stroke-width="1.5"></path><path d="M655.28 382.96L673.2 503.27" stroke="rgba(58, 197, 31, 1)" stroke-width="1.5"></path><path d="M673.2 503.27L673.2 503.27" stroke="rgba(58, 197, 31, 1)" stroke-width="1.5"></path><path d="M673.2 503.27L657.76 684.14" stroke="rgba(58, 197, 31, 1)" stroke-width="1.5"></path><path d="M673.2 503.27L860.54 560.85" stroke="rgba(58, 197, 31, 1)" stroke-width="1.5"></path><path d="M673.2 503.27L787.71 676.12" stroke="rgba(58, 197, 31, 1)" stroke-width="1.5"></path><path d="M657.76 684.14L657.76 684.14" stroke="rgba(58, 197, 31, 1)" stroke-width="1.5"></path><path d="M657.76 684.14L787.71 676.12" stroke="rgba(58, 197, 31, 1)" stroke-width="1.5"></path><path d="M799.7 193.39L799.7 193.39" stroke="rgba(58, 197, 31, 1)" stroke-width="1.5"></path><path d="M799.7 193.39L960.42 49.57" stroke="rgba(58, 197, 31, 1)" stroke-width="1.5"></path><path d="M799.7 193.39L655.28 382.96" stroke="rgba(58, 197, 31, 1)" stroke-width="1.5"></path><path d="M799.7 193.39L1004.03 358.68" stroke="rgba(58, 197, 31, 1)" stroke-width="1.5"></path><path d="M860.54 560.85L860.54 560.85" stroke="rgba(58, 197, 31, 1)" stroke-width="1.5"></path><path d="M860.54 560.85L938.21 487.78" stroke="rgba(58, 197, 31, 1)" stroke-width="1.5"></path><path d="M860.54 560.85L787.71 676.12" stroke="rgba(58, 197, 31, 1)" stroke-width="1.5"></path><path d="M860.54 560.85L983.12 651.03" stroke="rgba(58, 197, 31, 1)" stroke-width="1.5"></path><path d="M860.54 560.85L657.76 684.14" stroke="rgba(58, 197, 31, 1)" stroke-width="1.5"></path><path d="M860.54 560.85L1102.44 514.39" stroke="rgba(58, 197, 31, 1)" stroke-width="1.5"></path><path d="M787.71 676.12L787.71 676.12" stroke="rgba(58, 197, 31, 1)" stroke-width="1.5"></path><path d="M787.71 676.12L983.12 651.03" stroke="rgba(58, 197, 31, 1)" stroke-width="1.5"></path><path d="M1012.39 -112.19L1012.39 -112.19" stroke="rgba(58, 197, 31, 1)" stroke-width="1.5"></path><path d="M1012.39 -112.19L960.42 49.57" stroke="rgba(58, 197, 31, 1)" stroke-width="1.5"></path><path d="M1012.39 -112.19L1126.48 97.74" stroke="rgba(58, 197, 31, 1)" stroke-width="1.5"></path><path d="M1012.39 -112.19L1279.34 -88.8" stroke="rgba(58, 197, 31, 1)" stroke-width="1.5"></path><path d="M960.42 49.57L960.42 49.57" stroke="rgba(58, 197, 31, 1)" stroke-width="1.5"></path><path d="M960.42 49.57L1126.48 97.74" stroke="rgba(58, 197, 31, 1)" stroke-width="1.5"></path><path d="M1004.03 358.68L1004.03 358.68" stroke="rgba(58, 197, 31, 1)" stroke-width="1.5"></path><path d="M1004.03 358.68L1138.97 351.87" stroke="rgba(58, 197, 31, 1)" stroke-width="1.5"></path><path d="M1004.03 358.68L938.21 487.78" stroke="rgba(58, 197, 31, 1)" stroke-width="1.5"></path><path d="M1004.03 358.68L1121.89 253.61" stroke="rgba(58, 197, 31, 1)" stroke-width="1.5"></path><path d="M1004.03 358.68L1102.44 514.39" stroke="rgba(58, 197, 31, 1)" stroke-width="1.5"></path><path d="M1004.03 358.68L860.54 560.85" stroke="rgba(58, 197, 31, 1)" stroke-width="1.5"></path><path d="M1004.03 358.68L1258.91 342.57" stroke="rgba(58, 197, 31, 1)" stroke-width="1.5"></path><path d="M938.21 487.78L938.21 487.78" stroke="rgba(58, 197, 31, 1)" stroke-width="1.5"></path><path d="M983.12 651.03L983.12 651.03" stroke="rgba(58, 197, 31, 1)" stroke-width="1.5"></path><path d="M983.12 651.03L938.21 487.78" stroke="rgba(58, 197, 31, 1)" stroke-width="1.5"></path><path d="M983.12 651.03L1102.44 514.39" stroke="rgba(58, 197, 31, 1)" stroke-width="1.5"></path><path d="M983.12 651.03L1157.63 707.51" stroke="rgba(58, 197, 31, 1)" stroke-width="1.5"></path><path d="M983.12 651.03L1241.76 695.64" stroke="rgba(58, 197, 31, 1)" stroke-width="1.5"></path><path d="M1126.48 97.74L1126.48 97.74" stroke="rgba(58, 197, 31, 1)" stroke-width="1.5"></path><path d="M1126.48 97.74L1271.13 90.4" stroke="rgba(58, 197, 31, 1)" stroke-width="1.5"></path><path d="M1126.48 97.74L1121.89 253.61" stroke="rgba(58, 197, 31, 1)" stroke-width="1.5"></path><path d="M1121.89 253.61L1121.89 253.61" stroke="rgba(58, 197, 31, 1)" stroke-width="1.5"></path><path d="M1121.89 253.61L1138.97 351.87" stroke="rgba(58, 197, 31, 1)" stroke-width="1.5"></path><path d="M1121.89 253.61L1250.88 202.13" stroke="rgba(58, 197, 31, 1)" stroke-width="1.5"></path><path d="M1138.97 351.87L1138.97 351.87" stroke="rgba(58, 197, 31, 1)" stroke-width="1.5"></path><path d="M1138.97 351.87L1258.91 342.57" stroke="rgba(58, 197, 31, 1)" stroke-width="1.5"></path><path d="M1138.97 351.87L1102.44 514.39" stroke="rgba(58, 197, 31, 1)" stroke-width="1.5"></path><path d="M1102.44 514.39L1102.44 514.39" stroke="rgba(58, 197, 31, 1)" stroke-width="1.5"></path><path d="M1102.44 514.39L938.21 487.78" stroke="rgba(58, 197, 31, 1)" stroke-width="1.5"></path><path d="M1102.44 514.39L1280.2 492.2" stroke="rgba(58, 197, 31, 1)" stroke-width="1.5"></path><path d="M1157.63 707.51L1157.63 707.51" stroke="rgba(58, 197, 31, 1)" stroke-width="1.5"></path><path d="M1157.63 707.51L1241.76 695.64" stroke="rgba(58, 197, 31, 1)" stroke-width="1.5"></path><path d="M1157.63 707.51L1102.44 514.39" stroke="rgba(58, 197, 31, 1)" stroke-width="1.5"></path><path d="M1157.63 707.51L1280.2 492.2" stroke="rgba(58, 197, 31, 1)" stroke-width="1.5"></path><path d="M1157.63 707.51L938.21 487.78" stroke="rgba(58, 197, 31, 1)" stroke-width="1.5"></path><path d="M1279.34 -88.8L1279.34 -88.8" stroke="rgba(58, 197, 31, 1)" stroke-width="1.5"></path><path d="M1279.34 -88.8L1392.15 -80.12" stroke="rgba(58, 197, 31, 1)" stroke-width="1.5"></path><path d="M1279.34 -88.8L1271.13 90.4" stroke="rgba(58, 197, 31, 1)" stroke-width="1.5"></path><path d="M1271.13 90.4L1271.13 90.4" stroke="rgba(58, 197, 31, 1)" stroke-width="1.5"></path><path d="M1271.13 90.4L1250.88 202.13" stroke="rgba(58, 197, 31, 1)" stroke-width="1.5"></path><path d="M1271.13 90.4L1436.6 46.22" stroke="rgba(58, 197, 31, 1)" stroke-width="1.5"></path><path d="M1250.88 202.13L1250.88 202.13" stroke="rgba(58, 197, 31, 1)" stroke-width="1.5"></path><path d="M1258.91 342.57L1258.91 342.57" stroke="rgba(58, 197, 31, 1)" stroke-width="1.5"></path><path d="M1258.91 342.57L1250.88 202.13" stroke="rgba(58, 197, 31, 1)" stroke-width="1.5"></path><path d="M1258.91 342.57L1280.2 492.2" stroke="rgba(58, 197, 31, 1)" stroke-width="1.5"></path><path d="M1258.91 342.57L1121.89 253.61" stroke="rgba(58, 197, 31, 1)" stroke-width="1.5"></path><path d="M1258.91 342.57L1389.02 242.75" stroke="rgba(58, 197, 31, 1)" stroke-width="1.5"></path><path d="M1258.91 342.57L1444.41 371.64" stroke="rgba(58, 197, 31, 1)" stroke-width="1.5"></path><path d="M1280.2 492.2L1280.2 492.2" stroke="rgba(58, 197, 31, 1)" stroke-width="1.5"></path><path d="M1280.2 492.2L1398.76 493.39" stroke="rgba(58, 197, 31, 1)" stroke-width="1.5"></path><path d="M1241.76 695.64L1241.76 695.64" stroke="rgba(58, 197, 31, 1)" stroke-width="1.5"></path><path d="M1241.76 695.64L1280.2 492.2" stroke="rgba(58, 197, 31, 1)" stroke-width="1.5"></path><path d="M1392.15 -80.12L1392.15 -80.12" stroke="rgba(58, 197, 31, 1)" stroke-width="1.5"></path><path d="M1392.15 -80.12L1436.6 46.22" stroke="rgba(58, 197, 31, 1)" stroke-width="1.5"></path><path d="M1392.15 -80.12L1574.52 -107.62" stroke="rgba(58, 197, 31, 1)" stroke-width="1.5"></path><path d="M1436.6 46.22L1436.6 46.22" stroke="rgba(58, 197, 31, 1)" stroke-width="1.5"></path><path d="M1436.6 46.22L1612.37 101.42" stroke="rgba(58, 197, 31, 1)" stroke-width="1.5"></path><path d="M1436.6 46.22L1389.02 242.75" stroke="rgba(58, 197, 31, 1)" stroke-width="1.5"></path><path d="M1436.6 46.22L1574.52 -107.62" stroke="rgba(58, 197, 31, 1)" stroke-width="1.5"></path><path d="M1436.6 46.22L1279.34 -88.8" stroke="rgba(58, 197, 31, 1)" stroke-width="1.5"></path><path d="M1389.02 242.75L1389.02 242.75" stroke="rgba(58, 197, 31, 1)" stroke-width="1.5"></path><path d="M1389.02 242.75L1444.41 371.64" stroke="rgba(58, 197, 31, 1)" stroke-width="1.5"></path><path d="M1389.02 242.75L1250.88 202.13" stroke="rgba(58, 197, 31, 1)" stroke-width="1.5"></path><path d="M1389.02 242.75L1271.13 90.4" stroke="rgba(58, 197, 31, 1)" stroke-width="1.5"></path><path d="M1444.41 371.64L1444.41 371.64" stroke="rgba(58, 197, 31, 1)" stroke-width="1.5"></path><path d="M1444.41 371.64L1570.28 342.55" stroke="rgba(58, 197, 31, 1)" stroke-width="1.5"></path><path d="M1444.41 371.64L1398.76 493.39" stroke="rgba(58, 197, 31, 1)" stroke-width="1.5"></path><path d="M1444.41 371.64L1280.2 492.2" stroke="rgba(58, 197, 31, 1)" stroke-width="1.5"></path><path d="M1444.41 371.64L1561.93 557.45" stroke="rgba(58, 197, 31, 1)" stroke-width="1.5"></path><path d="M1398.76 493.39L1398.76 493.39" stroke="rgba(58, 197, 31, 1)" stroke-width="1.5"></path><path d="M1574.52 -107.62L1574.52 -107.62" stroke="rgba(58, 197, 31, 1)" stroke-width="1.5"></path><path d="M1574.52 -107.62L1612.37 101.42" stroke="rgba(58, 197, 31, 1)" stroke-width="1.5"></path><path d="M1574.52 -107.62L1279.34 -88.8" stroke="rgba(58, 197, 31, 1)" stroke-width="1.5"></path><path d="M1574.52 -107.62L1602.57 203.86" stroke="rgba(58, 197, 31, 1)" stroke-width="1.5"></path><path d="M1612.37 101.42L1612.37 101.42" stroke="rgba(58, 197, 31, 1)" stroke-width="1.5"></path><path d="M1612.37 101.42L1602.57 203.86" stroke="rgba(58, 197, 31, 1)" stroke-width="1.5"></path><path d="M1612.37 101.42L1570.28 342.55" stroke="rgba(58, 197, 31, 1)" stroke-width="1.5"></path><path d="M1602.57 203.86L1602.57 203.86" stroke="rgba(58, 197, 31, 1)" stroke-width="1.5"></path><path d="M1602.57 203.86L1570.28 342.55" stroke="rgba(58, 197, 31, 1)" stroke-width="1.5"></path><path d="M1602.57 203.86L1389.02 242.75" stroke="rgba(58, 197, 31, 1)" stroke-width="1.5"></path><path d="M1570.28 342.55L1570.28 342.55" stroke="rgba(58, 197, 31, 1)" stroke-width="1.5"></path><path d="M1570.28 342.55L1389.02 242.75" stroke="rgba(58, 197, 31, 1)" stroke-width="1.5"></path><path d="M1561.93 557.45L1561.93 557.45" stroke="rgba(58, 197, 31, 1)" stroke-width="1.5"></path><path d="M1561.93 557.45L1582.03 666.15" stroke="rgba(58, 197, 31, 1)" stroke-width="1.5"></path><path d="M1561.93 557.45L1398.76 493.39" stroke="rgba(58, 197, 31, 1)" stroke-width="1.5"></path><path d="M1582.03 666.15L1582.03 666.15" stroke="rgba(58, 197, 31, 1)" stroke-width="1.5"></path><path d="M1582.03 666.15L1398.76 493.39" stroke="rgba(58, 197, 31, 1)" stroke-width="1.5"></path><path d="M1582.03 666.15L1570.28 342.55" stroke="rgba(58, 197, 31, 1)" stroke-width="1.5"></path><circle r="5" cx="-88.88" cy="378.24" fill="rgba(58, 197, 31, 1)"></circle><circle r="5" cx="-96.86" cy="527.1" fill="rgba(58, 197, 31, 1)"></circle><circle r="5" cx="51.47" cy="388.18" fill="rgba(58, 197, 31, 1)"></circle><circle r="5" cx="83.89" cy="554.84" fill="rgba(58, 197, 31, 1)"></circle><circle r="5" cx="82.47" cy="680.16" fill="rgba(58, 197, 31, 1)"></circle><circle r="5" cx="235.51" cy="341.47" fill="rgba(58, 197, 31, 1)"></circle><circle r="5" cx="200.55" cy="543.14" fill="rgba(58, 197, 31, 1)"></circle><circle r="5" cx="350.64" cy="494.32" fill="rgba(58, 197, 31, 1)"></circle><circle r="5" cx="358.41" cy="676.84" fill="rgba(58, 197, 31, 1)"></circle><circle r="5" cx="539.22" cy="409.83" fill="rgba(58, 197, 31, 1)"></circle><circle r="5" cx="555.6" cy="538.63" fill="rgba(58, 197, 31, 1)"></circle><circle r="5" cx="526.14" cy="689.94" fill="rgba(58, 197, 31, 1)"></circle><circle r="5" cx="655.28" cy="382.96" fill="rgba(58, 197, 31, 1)"></circle><circle r="5" cx="673.2" cy="503.27" fill="rgba(58, 197, 31, 1)"></circle><circle r="5" cx="657.76" cy="684.14" fill="rgba(58, 197, 31, 1)"></circle><circle r="5" cx="799.7" cy="193.39" fill="rgba(58, 197, 31, 1)"></circle><circle r="5" cx="860.54" cy="560.85" fill="rgba(58, 197, 31, 1)"></circle><circle r="5" cx="787.71" cy="676.12" fill="rgba(58, 197, 31, 1)"></circle><circle r="5" cx="1012.39" cy="-112.19" fill="rgba(58, 197, 31, 1)"></circle><circle r="5" cx="960.42" cy="49.57" fill="rgba(58, 197, 31, 1)"></circle><circle r="5" cx="1004.03" cy="358.68" fill="rgba(58, 197, 31, 1)"></circle><circle r="5" cx="938.21" cy="487.78" fill="rgba(58, 197, 31, 1)"></circle><circle r="5" cx="983.12" cy="651.03" fill="rgba(58, 197, 31, 1)"></circle><circle r="5" cx="1126.48" cy="97.74" fill="rgba(58, 197, 31, 1)"></circle><circle r="5" cx="1121.89" cy="253.61" fill="rgba(58, 197, 31, 1)"></circle><circle r="5" cx="1138.97" cy="351.87" fill="rgba(58, 197, 31, 1)"></circle><circle r="5" cx="1102.44" cy="514.39" fill="rgba(58, 197, 31, 1)"></circle><circle r="5" cx="1157.63" cy="707.51" fill="rgba(58, 197, 31, 1)"></circle><circle r="5" cx="1279.34" cy="-88.8" fill="rgba(58, 197, 31, 1)"></circle><circle r="5" cx="1271.13" cy="90.4" fill="rgba(58, 197, 31, 1)"></circle><circle r="5" cx="1250.88" cy="202.13" fill="rgba(58, 197, 31, 1)"></circle><circle r="5" cx="1258.91" cy="342.57" fill="rgba(58, 197, 31, 1)"></circle><circle r="5" cx="1280.2" cy="492.2" fill="rgba(58, 197, 31, 1)"></circle><circle r="5" cx="1241.76" cy="695.64" fill="rgba(58, 197, 31, 1)"></circle><circle r="5" cx="1392.15" cy="-80.12" fill="rgba(58, 197, 31, 1)"></circle><circle r="5" cx="1436.6" cy="46.22" fill="rgba(58, 197, 31, 1)"></circle><circle r="5" cx="1389.02" cy="242.75" fill="rgba(58, 197, 31, 1)"></circle><circle r="5" cx="1444.41" cy="371.64" fill="rgba(58, 197, 31, 1)"></circle><circle r="5" cx="1398.76" cy="493.39" fill="rgba(58, 197, 31, 1)"></circle><circle r="5" cx="1574.52" cy="-107.62" fill="rgba(58, 197, 31, 1)"></circle><circle r="5" cx="1612.37" cy="101.42" fill="rgba(58, 197, 31, 1)"></circle><circle r="5" cx="1602.57" cy="203.86" fill="rgba(58, 197, 31, 1)"></circle><circle r="5" cx="1570.28" cy="342.55" fill="rgba(58, 197, 31, 1)"></circle><circle r="5" cx="1561.93" cy="557.45" fill="rgba(58, 197, 31, 1)"></circle><circle r="5" cx="1582.03" cy="666.15" fill="rgba(58, 197, 31, 1)"></circle><path d="M-56.15 669.94L-56.15 669.94" stroke="hsl(25.399999999999977, 77.2%, 51.5%)" stroke-width="1.5"></path><path d="M-56.15 669.94L-110.68 555.77" stroke="hsl(25.399999999999977, 77.2%, 51.5%)" stroke-width="1.5"></path><path d="M-56.15 669.94L72.72 650.7" stroke="hsl(25.399999999999977, 77.2%, 51.5%)" stroke-width="1.5"></path><path d="M-56.15 669.94L88.94 548.06" stroke="hsl(25.399999999999977, 77.2%, 51.5%)" stroke-width="1.5"></path><path d="M1302.37 -105.55L1302.37 -105.55" stroke="hsl(25.399999999999977, 77.2%, 51.5%)" stroke-width="1.5"></path><path d="M1302.37 -105.55L1436.73 -81.21" stroke="hsl(25.399999999999977, 77.2%, 51.5%)" stroke-width="1.5"></path><path d="M1302.37 -105.55L1287.3 86.34" stroke="hsl(25.399999999999977, 77.2%, 51.5%)" stroke-width="1.5"></path><path d="M1302.37 -105.55L1401.46 90.83" stroke="hsl(25.399999999999977, 77.2%, 51.5%)" stroke-width="1.5"></path><path d="M1287.3 86.34L1287.3 86.34" stroke="hsl(25.399999999999977, 77.2%, 51.5%)" stroke-width="1.5"></path><path d="M1287.3 86.34L1401.46 90.83" stroke="hsl(25.399999999999977, 77.2%, 51.5%)" stroke-width="1.5"></path><path d="M1287.3 86.34L1311.59 225.23" stroke="hsl(25.399999999999977, 77.2%, 51.5%)" stroke-width="1.5"></path><path d="M1287.3 86.34L1421.8 190" stroke="hsl(25.399999999999977, 77.2%, 51.5%)" stroke-width="1.5"></path><path d="M1287.3 86.34L1136.55 242.5" stroke="hsl(25.399999999999977, 77.2%, 51.5%)" stroke-width="1.5"></path><path d="M-110.68 555.77L-110.68 555.77" stroke="hsl(25.399999999999977, 77.2%, 51.5%)" stroke-width="1.5"></path><path d="M-110.68 555.77L88.94 548.06" stroke="hsl(25.399999999999977, 77.2%, 51.5%)" stroke-width="1.5"></path><path d="M-110.68 555.77L72.72 650.7" stroke="hsl(25.399999999999977, 77.2%, 51.5%)" stroke-width="1.5"></path><path d="M-110.68 555.77L216.75 520.52" stroke="hsl(25.399999999999977, 77.2%, 51.5%)" stroke-width="1.5"></path><path d="M88.94 548.06L88.94 548.06" stroke="hsl(25.399999999999977, 77.2%, 51.5%)" stroke-width="1.5"></path><path d="M88.94 548.06L72.72 650.7" stroke="hsl(25.399999999999977, 77.2%, 51.5%)" stroke-width="1.5"></path><path d="M88.94 548.06L216.75 520.52" stroke="hsl(25.399999999999977, 77.2%, 51.5%)" stroke-width="1.5"></path><path d="M88.94 548.06L218.61 647.04" stroke="hsl(25.399999999999977, 77.2%, 51.5%)" stroke-width="1.5"></path><path d="M72.72 650.7L72.72 650.7" stroke="hsl(25.399999999999977, 77.2%, 51.5%)" stroke-width="1.5"></path><path d="M216.75 520.52L216.75 520.52" stroke="hsl(25.399999999999977, 77.2%, 51.5%)" stroke-width="1.5"></path><path d="M216.75 520.52L218.61 647.04" stroke="hsl(25.399999999999977, 77.2%, 51.5%)" stroke-width="1.5"></path><path d="M218.61 647.04L218.61 647.04" stroke="hsl(25.399999999999977, 77.2%, 51.5%)" stroke-width="1.5"></path><path d="M218.61 647.04L72.72 650.7" stroke="hsl(25.399999999999977, 77.2%, 51.5%)" stroke-width="1.5"></path><path d="M218.61 647.04L384.23 708.7" stroke="hsl(25.399999999999977, 77.2%, 51.5%)" stroke-width="1.5"></path><path d="M218.61 647.04L354.1 504.38" stroke="hsl(25.399999999999977, 77.2%, 51.5%)" stroke-width="1.5"></path><path d="M218.61 647.04L-56.15 669.94" stroke="hsl(25.399999999999977, 77.2%, 51.5%)" stroke-width="1.5"></path><path d="M354.1 504.38L354.1 504.38" stroke="hsl(25.399999999999977, 77.2%, 51.5%)" stroke-width="1.5"></path><path d="M354.1 504.38L216.75 520.52" stroke="hsl(25.399999999999977, 77.2%, 51.5%)" stroke-width="1.5"></path><path d="M354.1 504.38L545.89 505.87" stroke="hsl(25.399999999999977, 77.2%, 51.5%)" stroke-width="1.5"></path><path d="M384.23 708.7L384.23 708.7" stroke="hsl(25.399999999999977, 77.2%, 51.5%)" stroke-width="1.5"></path><path d="M384.23 708.7L529.71 685.78" stroke="hsl(25.399999999999977, 77.2%, 51.5%)" stroke-width="1.5"></path><path d="M545.89 505.87L545.89 505.87" stroke="hsl(25.399999999999977, 77.2%, 51.5%)" stroke-width="1.5"></path><path d="M545.89 505.87L709.09 524.96" stroke="hsl(25.399999999999977, 77.2%, 51.5%)" stroke-width="1.5"></path><path d="M545.89 505.87L529.71 685.78" stroke="hsl(25.399999999999977, 77.2%, 51.5%)" stroke-width="1.5"></path><path d="M545.89 505.87L704.89 402.25" stroke="hsl(25.399999999999977, 77.2%, 51.5%)" stroke-width="1.5"></path><path d="M529.71 685.78L529.71 685.78" stroke="hsl(25.399999999999977, 77.2%, 51.5%)" stroke-width="1.5"></path><path d="M529.71 685.78L658.88 708.82" stroke="hsl(25.399999999999977, 77.2%, 51.5%)" stroke-width="1.5"></path><path d="M704.89 402.25L704.89 402.25" stroke="hsl(25.399999999999977, 77.2%, 51.5%)" stroke-width="1.5"></path><path d="M704.89 402.25L709.09 524.96" stroke="hsl(25.399999999999977, 77.2%, 51.5%)" stroke-width="1.5"></path><path d="M704.89 402.25L829.36 346.68" stroke="hsl(25.399999999999977, 77.2%, 51.5%)" stroke-width="1.5"></path><path d="M704.89 402.25L801.92 518.95" stroke="hsl(25.399999999999977, 77.2%, 51.5%)" stroke-width="1.5"></path><path d="M709.09 524.96L709.09 524.96" stroke="hsl(25.399999999999977, 77.2%, 51.5%)" stroke-width="1.5"></path><path d="M709.09 524.96L801.92 518.95" stroke="hsl(25.399999999999977, 77.2%, 51.5%)" stroke-width="1.5"></path><path d="M658.88 708.82L658.88 708.82" stroke="hsl(25.399999999999977, 77.2%, 51.5%)" stroke-width="1.5"></path><path d="M658.88 708.82L709.09 524.96" stroke="hsl(25.399999999999977, 77.2%, 51.5%)" stroke-width="1.5"></path><path d="M658.88 708.82L853.24 707.94" stroke="hsl(25.399999999999977, 77.2%, 51.5%)" stroke-width="1.5"></path><path d="M658.88 708.82L545.89 505.87" stroke="hsl(25.399999999999977, 77.2%, 51.5%)" stroke-width="1.5"></path><path d="M829.36 346.68L829.36 346.68" stroke="hsl(25.399999999999977, 77.2%, 51.5%)" stroke-width="1.5"></path><path d="M829.36 346.68L982.05 375.04" stroke="hsl(25.399999999999977, 77.2%, 51.5%)" stroke-width="1.5"></path><path d="M801.92 518.95L801.92 518.95" stroke="hsl(25.399999999999977, 77.2%, 51.5%)" stroke-width="1.5"></path><path d="M801.92 518.95L829.36 346.68" stroke="hsl(25.399999999999977, 77.2%, 51.5%)" stroke-width="1.5"></path><path d="M801.92 518.95L988.51 556.24" stroke="hsl(25.399999999999977, 77.2%, 51.5%)" stroke-width="1.5"></path><path d="M801.92 518.95L853.24 707.94" stroke="hsl(25.399999999999977, 77.2%, 51.5%)" stroke-width="1.5"></path><path d="M853.24 707.94L853.24 707.94" stroke="hsl(25.399999999999977, 77.2%, 51.5%)" stroke-width="1.5"></path><path d="M853.24 707.94L997.6 685.92" stroke="hsl(25.399999999999977, 77.2%, 51.5%)" stroke-width="1.5"></path><path d="M853.24 707.94L988.51 556.24" stroke="hsl(25.399999999999977, 77.2%, 51.5%)" stroke-width="1.5"></path><path d="M853.24 707.94L709.09 524.96" stroke="hsl(25.399999999999977, 77.2%, 51.5%)" stroke-width="1.5"></path><path d="M982.05 375.04L982.05 375.04" stroke="hsl(25.399999999999977, 77.2%, 51.5%)" stroke-width="1.5"></path><path d="M982.05 375.04L1134.69 346.18" stroke="hsl(25.399999999999977, 77.2%, 51.5%)" stroke-width="1.5"></path><path d="M982.05 375.04L988.51 556.24" stroke="hsl(25.399999999999977, 77.2%, 51.5%)" stroke-width="1.5"></path><path d="M982.05 375.04L1136.55 242.5" stroke="hsl(25.399999999999977, 77.2%, 51.5%)" stroke-width="1.5"></path><path d="M982.05 375.04L1125.43 538.3" stroke="hsl(25.399999999999977, 77.2%, 51.5%)" stroke-width="1.5"></path><path d="M982.05 375.04L801.92 518.95" stroke="hsl(25.399999999999977, 77.2%, 51.5%)" stroke-width="1.5"></path><path d="M988.51 556.24L988.51 556.24" stroke="hsl(25.399999999999977, 77.2%, 51.5%)" stroke-width="1.5"></path><path d="M988.51 556.24L997.6 685.92" stroke="hsl(25.399999999999977, 77.2%, 51.5%)" stroke-width="1.5"></path><path d="M988.51 556.24L1125.43 538.3" stroke="hsl(25.399999999999977, 77.2%, 51.5%)" stroke-width="1.5"></path><path d="M988.51 556.24L1109.61 701.77" stroke="hsl(25.399999999999977, 77.2%, 51.5%)" stroke-width="1.5"></path><path d="M997.6 685.92L997.6 685.92" stroke="hsl(25.399999999999977, 77.2%, 51.5%)" stroke-width="1.5"></path><path d="M997.6 685.92L1109.61 701.77" stroke="hsl(25.399999999999977, 77.2%, 51.5%)" stroke-width="1.5"></path><path d="M1136.55 242.5L1136.55 242.5" stroke="hsl(25.399999999999977, 77.2%, 51.5%)" stroke-width="1.5"></path><path d="M1136.55 242.5L1134.69 346.18" stroke="hsl(25.399999999999977, 77.2%, 51.5%)" stroke-width="1.5"></path><path d="M1136.55 242.5L1311.59 225.23" stroke="hsl(25.399999999999977, 77.2%, 51.5%)" stroke-width="1.5"></path><path d="M1134.69 346.18L1134.69 346.18" stroke="hsl(25.399999999999977, 77.2%, 51.5%)" stroke-width="1.5"></path><path d="M1134.69 346.18L1310.6 376.8" stroke="hsl(25.399999999999977, 77.2%, 51.5%)" stroke-width="1.5"></path><path d="M1134.69 346.18L1125.43 538.3" stroke="hsl(25.399999999999977, 77.2%, 51.5%)" stroke-width="1.5"></path><path d="M1125.43 538.3L1125.43 538.3" stroke="hsl(25.399999999999977, 77.2%, 51.5%)" stroke-width="1.5"></path><path d="M1125.43 538.3L1109.61 701.77" stroke="hsl(25.399999999999977, 77.2%, 51.5%)" stroke-width="1.5"></path><path d="M1125.43 538.3L1308.39 518.98" stroke="hsl(25.399999999999977, 77.2%, 51.5%)" stroke-width="1.5"></path><path d="M1125.43 538.3L997.6 685.92" stroke="hsl(25.399999999999977, 77.2%, 51.5%)" stroke-width="1.5"></path><path d="M1109.61 701.77L1109.61 701.77" stroke="hsl(25.399999999999977, 77.2%, 51.5%)" stroke-width="1.5"></path><path d="M1109.61 701.77L1306.98 664.76" stroke="hsl(25.399999999999977, 77.2%, 51.5%)" stroke-width="1.5"></path><path d="M1109.61 701.77L853.24 707.94" stroke="hsl(25.399999999999977, 77.2%, 51.5%)" stroke-width="1.5"></path><path d="M1311.59 225.23L1311.59 225.23" stroke="hsl(25.399999999999977, 77.2%, 51.5%)" stroke-width="1.5"></path><path d="M1311.59 225.23L1421.8 190" stroke="hsl(25.399999999999977, 77.2%, 51.5%)" stroke-width="1.5"></path><path d="M1310.6 376.8L1310.6 376.8" stroke="hsl(25.399999999999977, 77.2%, 51.5%)" stroke-width="1.5"></path><path d="M1310.6 376.8L1308.39 518.98" stroke="hsl(25.399999999999977, 77.2%, 51.5%)" stroke-width="1.5"></path><path d="M1310.6 376.8L1457.06 377.29" stroke="hsl(25.399999999999977, 77.2%, 51.5%)" stroke-width="1.5"></path><path d="M1310.6 376.8L1311.59 225.23" stroke="hsl(25.399999999999977, 77.2%, 51.5%)" stroke-width="1.5"></path><path d="M1310.6 376.8L1455.77 535.43" stroke="hsl(25.399999999999977, 77.2%, 51.5%)" stroke-width="1.5"></path><path d="M1310.6 376.8L1421.8 190" stroke="hsl(25.399999999999977, 77.2%, 51.5%)" stroke-width="1.5"></path><path d="M1308.39 518.98L1308.39 518.98" stroke="hsl(25.399999999999977, 77.2%, 51.5%)" stroke-width="1.5"></path><path d="M1308.39 518.98L1306.98 664.76" stroke="hsl(25.399999999999977, 77.2%, 51.5%)" stroke-width="1.5"></path><path d="M1306.98 664.76L1306.98 664.76" stroke="hsl(25.399999999999977, 77.2%, 51.5%)" stroke-width="1.5"></path><path d="M1306.98 664.76L1395.26 685.53" stroke="hsl(25.399999999999977, 77.2%, 51.5%)" stroke-width="1.5"></path><path d="M1306.98 664.76L1455.77 535.43" stroke="hsl(25.399999999999977, 77.2%, 51.5%)" stroke-width="1.5"></path><path d="M1436.73 -81.21L1436.73 -81.21" stroke="hsl(25.399999999999977, 77.2%, 51.5%)" stroke-width="1.5"></path><path d="M1436.73 -81.21L1544.6 -86.48" stroke="hsl(25.399999999999977, 77.2%, 51.5%)" stroke-width="1.5"></path><path d="M1436.73 -81.21L1401.46 90.83" stroke="hsl(25.399999999999977, 77.2%, 51.5%)" stroke-width="1.5"></path><path d="M1401.46 90.83L1401.46 90.83" stroke="hsl(25.399999999999977, 77.2%, 51.5%)" stroke-width="1.5"></path><path d="M1401.46 90.83L1421.8 190" stroke="hsl(25.399999999999977, 77.2%, 51.5%)" stroke-width="1.5"></path><path d="M1421.8 190L1421.8 190" stroke="hsl(25.399999999999977, 77.2%, 51.5%)" stroke-width="1.5"></path><path d="M1421.8 190L1551.59 246.8" stroke="hsl(25.399999999999977, 77.2%, 51.5%)" stroke-width="1.5"></path><path d="M1457.06 377.29L1457.06 377.29" stroke="hsl(25.399999999999977, 77.2%, 51.5%)" stroke-width="1.5"></path><path d="M1457.06 377.29L1564.81 390.69" stroke="hsl(25.399999999999977, 77.2%, 51.5%)" stroke-width="1.5"></path><path d="M1455.77 535.43L1455.77 535.43" stroke="hsl(25.399999999999977, 77.2%, 51.5%)" stroke-width="1.5"></path><path d="M1455.77 535.43L1308.39 518.98" stroke="hsl(25.399999999999977, 77.2%, 51.5%)" stroke-width="1.5"></path><path d="M1455.77 535.43L1457.06 377.29" stroke="hsl(25.399999999999977, 77.2%, 51.5%)" stroke-width="1.5"></path><path d="M1395.26 685.53L1395.26 685.53" stroke="hsl(25.399999999999977, 77.2%, 51.5%)" stroke-width="1.5"></path><path d="M1395.26 685.53L1455.77 535.43" stroke="hsl(25.399999999999977, 77.2%, 51.5%)" stroke-width="1.5"></path><path d="M1395.26 685.53L1308.39 518.98" stroke="hsl(25.399999999999977, 77.2%, 51.5%)" stroke-width="1.5"></path><path d="M1544.6 -86.48L1544.6 -86.48" stroke="hsl(25.399999999999977, 77.2%, 51.5%)" stroke-width="1.5"></path><path d="M1544.6 -86.48L1555.6 80.58" stroke="hsl(25.399999999999977, 77.2%, 51.5%)" stroke-width="1.5"></path><path d="M1544.6 -86.48L1401.46 90.83" stroke="hsl(25.399999999999977, 77.2%, 51.5%)" stroke-width="1.5"></path><path d="M1555.6 80.58L1555.6 80.58" stroke="hsl(25.399999999999977, 77.2%, 51.5%)" stroke-width="1.5"></path><path d="M1555.6 80.58L1401.46 90.83" stroke="hsl(25.399999999999977, 77.2%, 51.5%)" stroke-width="1.5"></path><path d="M1555.6 80.58L1551.59 246.8" stroke="hsl(25.399999999999977, 77.2%, 51.5%)" stroke-width="1.5"></path><path d="M1551.59 246.8L1551.59 246.8" stroke="hsl(25.399999999999977, 77.2%, 51.5%)" stroke-width="1.5"></path><path d="M1551.59 246.8L1564.81 390.69" stroke="hsl(25.399999999999977, 77.2%, 51.5%)" stroke-width="1.5"></path><path d="M1551.59 246.8L1457.06 377.29" stroke="hsl(25.399999999999977, 77.2%, 51.5%)" stroke-width="1.5"></path><path d="M1551.59 246.8L1401.46 90.83" stroke="hsl(25.399999999999977, 77.2%, 51.5%)" stroke-width="1.5"></path><path d="M1551.59 246.8L1311.59 225.23" stroke="hsl(25.399999999999977, 77.2%, 51.5%)" stroke-width="1.5"></path><path d="M1564.81 390.69L1564.81 390.69" stroke="hsl(25.399999999999977, 77.2%, 51.5%)" stroke-width="1.5"></path><path d="M1564.81 390.69L1455.77 535.43" stroke="hsl(25.399999999999977, 77.2%, 51.5%)" stroke-width="1.5"></path><path d="M1564.81 390.69L1421.8 190" stroke="hsl(25.399999999999977, 77.2%, 51.5%)" stroke-width="1.5"></path><path d="M1564.81 390.69L1310.6 376.8" stroke="hsl(25.399999999999977, 77.2%, 51.5%)" stroke-width="1.5"></path><path d="M1564.81 390.69L1587.25 656.86" stroke="hsl(25.399999999999977, 77.2%, 51.5%)" stroke-width="1.5"></path><path d="M1587.25 656.86L1587.25 656.86" stroke="hsl(25.399999999999977, 77.2%, 51.5%)" stroke-width="1.5"></path><path d="M1587.25 656.86L1455.77 535.43" stroke="hsl(25.399999999999977, 77.2%, 51.5%)" stroke-width="1.5"></path><path d="M1587.25 656.86L1395.26 685.53" stroke="hsl(25.399999999999977, 77.2%, 51.5%)" stroke-width="1.5"></path><path d="M1587.25 656.86L1306.98 664.76" stroke="hsl(25.399999999999977, 77.2%, 51.5%)" stroke-width="1.5"></path><circle r="25" cx="-56.15" cy="669.94" fill="url(#SvgjsRadialGradient1019)"></circle><circle r="25" cx="1302.37" cy="-105.55" fill="url(#SvgjsRadialGradient1019)"></circle><circle r="25" cx="1287.3" cy="86.34" fill="url(#SvgjsRadialGradient1019)"></circle><circle r="5" cx="-110.68" cy="555.77" fill="#d9ac8b"></circle><circle r="5" cx="88.94" cy="548.06" fill="#d9ac8b"></circle><circle r="5" cx="72.72" cy="650.7" fill="#d9ac8b"></circle><circle r="5" cx="216.75" cy="520.52" fill="#d9ac8b"></circle><circle r="5" cx="218.61" cy="647.04" fill="#d9ac8b"></circle><circle r="5" cx="354.1" cy="504.38" fill="#d9ac8b"></circle><circle r="5" cx="384.23" cy="708.7" fill="#d9ac8b"></circle><circle r="5" cx="545.89" cy="505.87" fill="#d9ac8b"></circle><circle r="5" cx="529.71" cy="685.78" fill="#d9ac8b"></circle><circle r="5" cx="704.89" cy="402.25" fill="#d9ac8b"></circle><circle r="5" cx="709.09" cy="524.96" fill="#d9ac8b"></circle><circle r="5" cx="658.88" cy="708.82" fill="#d9ac8b"></circle><circle r="5" cx="829.36" cy="346.68" fill="#d9ac8b"></circle><circle r="5" cx="801.92" cy="518.95" fill="#d9ac8b"></circle><circle r="5" cx="853.24" cy="707.94" fill="#d9ac8b"></circle><circle r="5" cx="982.05" cy="375.04" fill="#d9ac8b"></circle><circle r="5" cx="988.51" cy="556.24" fill="#d9ac8b"></circle><circle r="5" cx="997.6" cy="685.92" fill="#d9ac8b"></circle><circle r="5" cx="1136.55" cy="242.5" fill="#d9ac8b"></circle><circle r="5" cx="1134.69" cy="346.18" fill="#d9ac8b"></circle><circle r="5" cx="1125.43" cy="538.3" fill="#d9ac8b"></circle><circle r="5" cx="1109.61" cy="701.77" fill="#d9ac8b"></circle><circle r="5" cx="1311.59" cy="225.23" fill="#d9ac8b"></circle><circle r="5" cx="1310.6" cy="376.8" fill="#d9ac8b"></circle><circle r="5" cx="1308.39" cy="518.98" fill="#d9ac8b"></circle><circle r="5" cx="1306.98" cy="664.76" fill="#d9ac8b"></circle><circle r="5" cx="1436.73" cy="-81.21" fill="#d9ac8b"></circle><circle r="5" cx="1401.46" cy="90.83" fill="#d9ac8b"></circle><circle r="5" cx="1421.8" cy="190" fill="#d9ac8b"></circle><circle r="5" cx="1457.06" cy="377.29" fill="#d9ac8b"></circle><circle r="5" cx="1455.77" cy="535.43" fill="#d9ac8b"></circle><circle r="5" cx="1395.26" cy="685.53" fill="#d9ac8b"></circle><circle r="5" cx="1544.6" cy="-86.48" fill="#d9ac8b"></circle><circle r="5" cx="1555.6" cy="80.58" fill="#d9ac8b"></circle><circle r="5" cx="1551.59" cy="246.8" fill="#d9ac8b"></circle><circle r="5" cx="1564.81" cy="390.69" fill="#d9ac8b"></circle><circle r="5" cx="1587.25" cy="656.86" fill="#d9ac8b"></circle></g><defs><mask id="SvgjsMask1018"><rect width="1440" height="560" fill="#ffffff"></rect></mask><radialGradient id="SvgjsRadialGradient1019"><stop stop-color="#ffffff" offset="0.1"></stop><stop stop-color="rgba(179, 89, 23, 1)" offset="0.2"></stop><stop stop-color="rgba(179, 89, 23, 0)" offset="1"></stop></radialGradient></defs></svg>